# xmcd CD database file
#
# Track frame offsets:
#	150
#	11175
#	23535
#	37522
#	55017
#	68665
#	84142
#	98067
#	110555
#
# Disc length: 1598 seconds
#
# Revision: 1
# Processed by: cddbd v1.5PL3 Copyright (c) Steve Scherf et al.
# Submitted via: CDex 1.51
#
DISCID=58063c09
DTITLE=BACKYARD BABIES - Safety Pin and Leopard Skin
DYEAR=1998
DGENRE=Hard Rock
TTITLE0=Made Me Madman (LIVE)
TTITLE1=Backstabber (LIVE)
TTITLE2=Look At You (LIVE)
TTITLE3=Highlights (LIVE)
TTITLE4=Stars (LIVE)
TTITLE5=Fill Up This Bad Machine (LIVE)
TTITLE6=Babylon (Feat Ginger and Dj Champain)
TTITLE7=Backstabber
TTITLE8=Gotta Go!
EXTD=YEAR: 1998
EXTT0=
EXTT1=
EXTT2=
EXTT3=
EXTT4=
EXTT5=
EXTT6=
EXTT7=
EXTT8=
PLAYORDER=
